<svg class="logo-color" version="1.1" xmlns="http://www.w3.org/2000/svg" width="50px" height="50px" viewBox="0 0 16 16" preserveAspectRatio="xMidYMid meet" fill="#fff"><style>a[href] > svg:hover {fill: #8a0200}</style><g transform="translate(0.000000,16.000000) scale(0.002286,-0.002286)" stroke="none"><path d="M3290 6887 c-3 -3 -45 -7 -95 -10 -291 -18 -680 -112 -986 -238 -232 -95 -549 -269 -694 -381 -283 -218 -508 -432 -677 -643 -280 -352 -486 -747 -613 -1181 -26 -86 -69 -272 -79 -339 -4 -22 -11 -67 -16 -100 -28 -176 -35 -278 -35 -505 1 -324 26 -535 100 -832 34 -133 106 -359 138 -428 9 -19 28 -64 43 -100 35 -86 110 -234 171 -340 48 -83 162 -260 173 -270 3 -3 23 -30 45 -60 165 -229 455 -519 700 -700 455 -336 967 -548 1535 -635 153 -23 307 -33 510 -32 245 1 276 6 323 53 62 60 70 140 22 215 -41 64 -63 68 -316 67 -123 -1 -255 2 -294 6 -128 13 -240 27 -255 31 -8 2 -27 6 -42 9 -381 65 -794 230 -1123 449 -198 132 -344 252 -505 416 -493 501 -797 1156 -863 1857 -13 131 -15 487 -3 564 2 19 7 55 10 80 3 25 8 68 12 95 10 83 54 282 89 404 105 366 322 784 550 1060 443 537 993 889 1650 1055 55 14 114 27 130 30 129 22 230 37 285 42 36 2 83 7 105 10 56 6 347 6 431 -1 678 -56 1287 -310 1787 -748 280 -246 498 -520 680 -854 37 -67 67 -124 67 -127 0 -2 15 -37 34 -78 132 -289 223 -640 253 -983 14 -155 8 -527 -11 -682 -35 -292 -116 -578 -208 -728 -74 -121 -227 -287 -325 -352 -177 -118 -307 -129 -396 -34 -98 105 -138 229 -142 446 -3 156 8 285 41 495 45 285 213 1109 278 1362 45 176 122 405 197 585 62 150 68 177 44 222 -33 65 -186 131 -303 131 -194 0 -344 -99 -567 -376 -174 -214 -317 -437 -448 -699 -99 -199 -180 -388 -470 -1105 -115 -284 -274 -649 -316 -725 -20 -37 -21 -38 -16 -10 23 131 55 352 60 405 3 36 7 79 9 95 2 17 7 68 11 115 4 47 9 96 10 110 2 14 7 90 11 170 8 150 8 238 3 940 -3 491 1 590 43 1010 4 40 -14 79 -44 93 -31 15 -57 15 -268 2 -195 -12 -220 -29 -364 -245 -225 -336 -333 -601 -491 -1215 -149 -577 -258 -979 -305 -1129 -101 -314 -248 -588 -405 -754 -78 -83 -149 -122 -221 -122 -43 0 -56 5 -91 35 -46 39 -79 100 -88 160 -19 124 -57 210 -104 238 -38 22 -99 29 -140 16 -95 -31 -284 -198 -323 -285 -16 -36 -22 -68 -22 -121 0 -63 5 -81 37 -145 54 -107 126 -177 243 -237 244 -124 543 -53 789 187 273 266 449 583 595 1077 93 315 171 584 230 795 137 490 197 692 249 840 35 101 38 95 10 -20 -26 -107 -56 -268 -64 -346 -4 -32 -8 -70 -11 -85 -4 -27 -10 -149 -19 -384 -3 -82 -7 -202 -10 -265 -2 -63 -7 -212 -10 -330 -4 -118 -8 -242 -10 -275 -2 -33 -6 -105 -10 -160 -3 -55 -8 -120 -10 -145 -3 -25 -7 -76 -10 -115 -4 -38 -8 -83 -10 -100 -10 -71 -36 -263 -40 -290 -19 -128 -45 -329 -48 -369 -5 -65 12 -81 94 -91 145 -18 300 2 407 52 163 77 348 316 542 703 74 148 147 320 432 1020 300 739 287 708 353 845 74 152 213 400 221 392 2 -2 -21 -62 -52 -133 -114 -263 -219 -642 -288 -1034 -4 -25 -11 -67 -21 -125 -8 -45 -53 -429 -60 -512 -12 -133 -6 -412 10 -473 2 -8 7 -34 10 -57 11 -80 66 -258 106 -342 112 -239 271 -349 505 -349 469 -1 1083 412 1292 868 118 255 223 673 249 985 15 178 6 715 -12 745 -2 3 -6 32 -10 64 -9 83 -41 243 -76 375 -222 841 -751 1554 -1501 2024 -104 65 -295 166 -413 219 -282 126 -660 229 -960 263 -33 4 -71 9 -85 12 -32 6 -524 16 -530 10z"/></g></svg>