<?xml version="1.0" encoding="utf-8"?>
<!-- Generator: Adobe Illustrator 21.1.0, SVG Export Plug-In . SVG Version: 6.00 Build 0)  -->
<svg version="1.1" id="Layer_1" xmlns="http://www.w3.org/2000/svg" xmlns:xlink="http://www.w3.org/1999/xlink" x="0px" y="0px"
	 viewBox="0 0 24 24" style="enable-background:new 0 0 24 24;" xml:space="preserve">
<style type="text/css">
	.st0{fill:#FFFFFF;}
</style>
<g transform="scale(0.9)"><path class="st0" d="M23,5v13.9L22,19V3c-3.9,0.1-7.5,0.8-10,2.3C9.5,3.8,5.9,3.1,2,3v16l-1-0.1V5H0v15h9.1c1.5,0,1.6,1,2.9,1
	c1.3,0,1.5-1,2.9-1H24V5H23z M11,18.6c-1.9-0.8-4.1-1.3-7-1.5V5.1C6.4,5.3,9,5.8,11,7V18.6z M20,17.2c-2.9,0.2-5.1,0.7-7,1.5V7
	c2-1.2,4.6-1.7,7-1.9C20,5.1,20,17.2,20,17.2z"/></g>
</svg>
